<svg width="17" height="17" version="1.1" viewBox="0 0 17 17" xmlns="http://www.w3.org/2000/svg">
 <path d="m2.5 2c-0.1326 1.8e-5 -0.25976 0.05271-0.35352 0.14648-0.19521 0.19525-0.19521 0.51178 0 0.70703l2.1445 2.1445v0.0019531h-0.79102a0.5 0.5 0 0 0-0.5 0.5 0.5 0.5 0 0 0 0.5 0.5h2a0.50005 0.50005 0 0 0 0.5-0.5v-2a0.5 0.5 0 0 0-0.5-0.5 0.5 0.5 0 0 0-0.5 0.5v0.79297l-2.1465-2.1465c-0.09375-0.09377-0.22091-0.14647-0.35352-0.14648zm11 0c-0.12794 0-0.25589 0.048879-0.35352 0.14648l-2.1445 2.1445h-0.001953v-0.79102a0.5 0.5 0 0 0-0.5-0.5 0.5 0.5 0 0 0-0.5 0.5v2a0.50005 0.50005 0 0 0 0.5 0.5h2a0.5 0.5 0 0 0 0.5-0.5 0.5 0.5 0 0 0-0.5-0.5h-0.79297l2.1465-2.1465c0.09377-0.09375 0.14647-0.22091 0.14648-0.35352-1.8e-5 -0.1326-0.05271-0.25976-0.14648-0.35352-0.097627-0.097606-0.22557-0.14648-0.35352-0.14648zm-10 9a0.5 0.5 0 0 0-0.5 0.5 0.5 0.5 0 0 0 0.5 0.5h0.79297l-2.1465 2.1465c-0.09377 0.09375-0.14647 0.22092-0.14648 0.35352 1.8e-5 0.1326 0.05271 0.25976 0.14648 0.35352 0.19525 0.19521 0.51178 0.19521 0.70703 0l2.1445-2.1445h0.0019531v0.79102a0.5 0.5 0 0 0 0.5 0.5 0.5 0.5 0 0 0 0.5-0.5v-2a0.50005 0.50005 0 0 0-0.5-0.5h-2zm7 0a0.50005 0.50005 0 0 0-0.5 0.5v2a0.5 0.5 0 0 0 0.5 0.5 0.5 0.5 0 0 0 0.5-0.5v-0.79297l2.1465 2.1465c0.09375 0.09377 0.22092 0.14647 0.35352 0.14648 0.1326-1.8e-5 0.25976-0.05271 0.35352-0.14648 0.19521-0.19525 0.19521-0.51178 0-0.70703l-2.1445-2.1445v-0.001953h0.79102a0.5 0.5 0 0 0 0.5-0.5 0.5 0.5 0 0 0-0.5-0.5h-2z"/>
</svg>
