<svg width="17" height="17" version="1.1" viewBox="0 0 17 17" xmlns="http://www.w3.org/2000/svg">
 <path d="m2.5 2a0.50005 0.50005 0 0 0-0.5 0.5v2a0.5 0.5 0 0 0 0.5 0.5 0.5 0.5 0 0 0 0.5-0.5v-0.79297l2.1465 2.1465c0.093755 0.093772 0.22091 0.14647 0.35352 0.14648 0.1326-1.77e-5 0.25976-0.052712 0.35352-0.14648 0.19521-0.19525 0.19521-0.51178 0-0.70703l-2.1445-2.1445v-0.0019531h0.79102a0.5 0.5 0 0 0 0.5-0.5 0.5 0.5 0 0 0-0.5-0.5h-2zm10 0a0.5 0.5 0 0 0-0.5 0.5 0.5 0.5 0 0 0 0.5 0.5h0.79297l-2.1465 2.1465c-0.09377 0.093755-0.14647 0.22091-0.14648 0.35352 1.8e-5 0.1326 0.05271 0.25976 0.14648 0.35352 0.19525 0.19521 0.51178 0.19521 0.70703 0l2.1445-2.1445h0.001953v0.79102a0.5 0.5 0 0 0 0.5 0.5 0.5 0.5 0 0 0 0.5-0.5v-2a0.50005 0.50005 0 0 0-0.5-0.5h-2zm-7 9c-0.12794 0-0.25589 0.048879-0.35352 0.14648l-2.1445 2.1445h-0.0019531v-0.79102a0.5 0.5 0 0 0-0.5-0.5 0.5 0.5 0 0 0-0.5 0.5v2a0.50005 0.50005 0 0 0 0.5 0.5h2a0.5 0.5 0 0 0 0.5-0.5 0.5 0.5 0 0 0-0.5-0.5h-0.79297l2.1465-2.1465c0.09377-0.09375 0.14647-0.22092 0.14648-0.35352-1.8e-5 -0.1326-0.05271-0.25976-0.14648-0.35352-0.097627-0.097605-0.22557-0.14648-0.35352-0.14648zm6 0c-0.1326 1.8e-5 -0.25976 0.05271-0.35352 0.14648-0.19521 0.19525-0.19521 0.51178 0 0.70703l2.1445 2.1445v0.001953h-0.79102a0.5 0.5 0 0 0-0.5 0.5 0.5 0.5 0 0 0 0.5 0.5h2a0.50005 0.50005 0 0 0 0.5-0.5v-2a0.5 0.5 0 0 0-0.5-0.5 0.5 0.5 0 0 0-0.5 0.5v0.79297l-2.1465-2.1465c-0.093755-0.093772-0.22092-0.14647-0.35352-0.14648z"/>
</svg>
