<svg width="17" height="17" version="1.1" viewBox="0 0 17 17" xmlns="http://www.w3.org/2000/svg">
 <path d="m2.5 2a0.50005 0.50005 0 0 0-0.5 0.5v12a0.50005 0.50005 0 0 0 0.5 0.5h12a0.50005 0.50005 0 0 0 0.5-0.5v-12a0.50005 0.50005 0 0 0-0.5-0.5h-12zm0.5 1h11v11h-11v-11zm2.5 2a0.50005 0.50005 0 0 0-0.5 0.5v2a0.5 0.5 0 0 0 0.5 0.5 0.5 0.5 0 0 0 0.5-0.5v-1.5h1.5a0.5 0.5 0 0 0 0.5-0.5 0.5 0.5 0 0 0-0.5-0.5h-2zm6 4a0.5 0.5 0 0 0-0.5 0.5v1.5h-1.5a0.5 0.5 0 0 0-0.5 0.5 0.5 0.5 0 0 0 0.5 0.5h2a0.50005 0.50005 0 0 0 0.5-0.5v-2a0.5 0.5 0 0 0-0.5-0.5z"/>
</svg>
