<svg width="17" height="17" version="1.1" viewBox="0 0 17 17" xml:space="preserve" xmlns="http://www.w3.org/2000/svg"><path d="m9.5078 1.0703a0.5 0.5 0 0 0-0.50195 0.42969 0.5 0.5 0 0 0 0.42383 0.56641c3.2011 0.46225 5.5698 3.1973 5.5703 6.4316 5.07e-4 3.2343-2.3674 5.9723-5.5684 6.4355a0.5 0.5 0 0 0-0.42383 0.56641 0.5 0.5 0 0 0 0.56641 0.42188c3.6855-0.53338 6.4264-3.6999 6.4258-7.4238-5.84e-4 -3.7239-2.742-6.8896-6.4277-7.4219a0.5 0.5 0 0 0-0.064453-0.0058594zm-2.0176 0.0019531a0.5 0.5 0 0 0-0.064453 0.0058594c-3.6853 0.5331-6.4258 3.6982-6.4258 7.4219 1.32e-5 3.7237 2.7405 6.8888 6.4258 7.4219a0.5 0.5 0 0 0 0.56641-0.42188 0.5 0.5 0 0 0-0.42383-0.56641c-3.2008-0.46299-5.5683-3.1995-5.5684-6.4336-1.13e-5 -3.2341 2.3676-5.9706 5.5684-6.4336a0.5 0.5 0 0 0 0.42383-0.56641 0.5 0.5 0 0 0-0.50195-0.42773zm0.0097656 3.9277a0.5 0.5 0 0 0-0.5 0.5v5a0.5 0.5 0 0 0 0.5 0.5 0.5 0.5 0 0 0 0.5-0.5v-5a0.5 0.5 0 0 0-0.5-0.5zm2 0a0.5 0.5 0 0 0-0.5 0.5 0.5 0.5 0 0 0 0.5 0.5 0.5 0.5 0 0 0 0.5-0.5 0.5 0.5 0 0 0-0.5-0.5zm-4.4668 2c-0.21131-0.0030189-0.42115 0.028397-0.62109 0.089844-0.39989 0.12289-0.76113 0.36994-1.0215 0.72266-0.52072 0.70542-0.51999 1.6744 0.0019531 2.3789 0.52195 0.70451 1.4469 0.98604 2.2734 0.69336a0.5 0.5 0 0 0 0.30469-0.63672 0.5 0.5 0 0 0-0.63672-0.30469c-0.41623 0.1474-0.87581 0.0071434-1.1387-0.34766-0.26286-0.3548-0.26224-0.8342 0-1.1895s0.72023-0.49628 1.1367-0.34961a0.5 0.5 0 0 0 0.63672-0.30469 0.5 0.5 0 0 0-0.30469-0.63867c-0.20675-0.072809-0.41955-0.11026-0.63086-0.11328zm4.4668 0a0.5 0.5 0 0 0-0.5 0.5v4c0 0.28206-0.21794 0.5-0.5 0.5a0.5 0.5 0 0 0-0.5 0.5 0.5 0.5 0 0 0 0.5 0.5c0.80075 0 1.4616-0.64263 1.4961-1.4355a0.5 0.5 0 0 0 0.0039062-0.064453v-4a0.5 0.5 0 0 0-0.5-0.5zm2.9395 0.0019531c-0.31028 0.008998-0.62036 0.091526-0.9043 0.24805-0.011537 0.0063598-0.023708 0.010969-0.035156 0.017578a0.5 0.5 0 0 0-0.021484 0.013672 0.5 0.5 0 0 0-0.021485 0.013672c-0.23177 0.15284-0.43047 0.34505-0.49609 0.63672-0.06757 0.30028 0.07254 0.58768 0.22266 0.75781 0.30022 0.34026 0.69494 0.51172 1.084 0.70312 0.32242 0.15863 0.62543 0.31119 0.80664 0.42578-0.16701 0.11713-0.36731 0.18164-0.57422 0.18164-0.26541-1e-7 -0.51936-0.1053-0.70703-0.29297a0.5 0.5 0 0 0-0.35352-0.14648 0.5 0.5 0 0 0-0.35352 0.14648 0.5 0.5 0 0 0 0 0.70703c0.37494 0.37494 0.88382 0.58594 1.4141 0.58594 0.51893 0 1.0181-0.20243 1.3906-0.5625 0.19724-0.16367 0.36903-0.46231 0.31641-0.75195-0.054977-0.30261-0.23689-0.45629-0.39844-0.58203-0.3231-0.25149-0.72582-0.42352-1.0996-0.60742-0.30793-0.1515-0.53244-0.29991-0.65234-0.39258 0.38353-0.19032 0.84396-0.11698 1.1504 0.18945a0.5 0.5 0 0 0 0.70703 0 0.5 0.5 0 0 0 0-0.70703c-0.39898-0.39898-0.93646-0.59959-1.4746-0.58398z"/></svg>
