<svg width="17" height="17" version="1.1" viewBox="0 0 17 17" xml:space="preserve" xmlns="http://www.w3.org/2000/svg">
    <path d="m14.961 1.9512c-0.053794 1.608e-4 -0.10512 0.0045826-0.15039 0.011719-0.18107 0.028544-0.33854 0.09173-0.51172 0.17383-0.34635 0.16419-0.7438 0.41691-1.1953 0.73633-0.90304 0.63883-2.0092 1.5424-3.0938 2.4688-2.017 1.7229-3.8796 3.4555-4.1406 3.6992-0.22545 0.05549-0.67799 0.18728-1.1523 0.44141-0.6683 0.35801-1.4463 1.013-1.5703 2.0703-0.12548 1.0694-0.46031 1.6682-0.73828 2.0039-0.27797 0.33571-0.44922 0.38867-0.44922 0.38867a0.50005 0.50005 0 0 0 0.13867 0.96094s0.77124 0.07749 1.7031 0.0625 2.0164-0.080857 2.8066-0.53516c1.2711-0.73076 1.8205-2.2644 1.9492-2.6777 0.21262-0.22742 1.9717-2.1139 3.7129-4.1523 0.92637-1.0845 1.8319-2.1927 2.4707-3.0957 0.31942-0.45152 0.57214-0.84697 0.73633-1.1934 0.082101-0.17317 0.14528-0.3326 0.17383-0.51367 0.02854-0.18107 0.019703-0.44905-0.18555-0.6543-0.15393-0.15393-0.34253-0.1958-0.50391-0.19531zm-10.961 0.048828c-0.1326 2e-5 -0.25976 0.052716-0.35352 0.14648l-1.5 1.5c-0.09377 0.09376-0.14646 0.22092-0.14648 0.35352v1c2e-5 0.1326 0.052714 0.25976 0.14648 0.35352l2.5801 2.5801c0.19525 0.19521 0.51178 0.19521 0.70703 0 0.19521-0.19525 0.19521-0.51178 0-0.70703l-0.97656-0.97656 1.793-1.793 1.2266 1.2266c0.19525 0.19521 0.51178 0.19521 0.70703 0 0.19521-0.19525 0.19521-0.51178 0-0.70703l-2.8301-2.8301c-0.09376-0.093768-0.22092-0.14646-0.35352-0.14648h-1zm0.20703 1h0.58594l0.75 0.75-1.793 1.793-0.75-0.75v-0.58594l1.207-1.207zm10.111 0.29297c-0.12135 0.20313-0.21054 0.37663-0.39453 0.63672-0.60416 0.85402-1.4977 1.9506-2.4141 3.0234-0.73685 0.86263-1.4129 1.6204-1.9844 2.2539l-1.1211-1.1211c0.63352-0.57152 1.3913-1.2475 2.2539-1.9844 1.0728-0.91639 2.1694-1.808 3.0234-2.4121 0.26023-0.18409 0.43352-0.27511 0.63672-0.39648zm-6.6562 5.4648 1.1914 1.1914c-0.3595 0.39159-0.65224 0.7069-0.76172 0.82422l-1.2539-1.2539c0.11732-0.10948 0.43263-0.40222 0.82422-0.76172zm4.6191 0.52344c-0.1326 1.99e-5 -0.25976 0.052711-0.35352 0.14648-0.19521 0.19525-0.19521 0.51178 0 0.70703l1.1152 1.1152-1.793 1.793-0.86523-0.86524c-0.19525-0.19521-0.51178-0.19521-0.70703 0-0.19521 0.19525-0.19521 0.51178 0 0.70703l1.4687 1.4688c0.07359 0.07407 0.16852 0.12324 0.27148 0.14062l3 0.5c0.33907 0.05712 0.63329-0.2371 0.57617-0.57617l-0.5-3c-0.01738-0.10296-0.06656-0.1979-0.14062-0.27148l-1.7188-1.7187c-0.093753-0.093773-0.22092-0.14646-0.35352-0.14648zm-6.3223 0.77344 1.5684 1.5684v0.001953c-0.2084 0.49531-0.71373 1.5366-1.418 1.9414-0.4329 0.24887-1.4556 0.38837-2.3242 0.40234-0.28171 0.0045-0.28437-0.009598-0.51562-0.017578 0.3642-0.49604 0.74006-1.1646 0.87109-2.2812 0.073555-0.62689 0.53066-1.0282 1.0469-1.3047 0.29682-0.159 0.57697-0.2547 0.77148-0.31055zm7.6367 2.0566 0.20508 1.2324-0.45508 0.45508-1.2324-0.20508 1.4824-1.4824z"/>
</svg>
