<svg width="17" height="17" version="1.1" viewBox="0 0 17 17" xmlns="http://www.w3.org/2000/svg">
 <path d="m10.5 1a0.50005 0.50005 0 0 0-0.5 0.5v5a0.50005 0.50005 0 0 0 0.5 0.5h5a0.50005 0.50005 0 0 0 0.5-0.5v-5a0.50005 0.50005 0 0 0-0.5-0.5h-5zm0.5 1h4v4h-4v-4zm-8.5 2a0.50005 0.50005 0 0 0-0.5 0.5v5 5a0.50005 0.50005 0 0 0 0.5 0.5h5 5a0.50005 0.50005 0 0 0 0.5-0.5v-5a0.50005 0.50005 0 0 0-0.5-0.5h-4.5v-4.5a0.50005 0.50005 0 0 0-0.5-0.5h-5zm0.5 1h4v4h-4v-4zm0 5h4v4h-4v-4zm5 0h4v4h-4v-4z"/>
</svg>
