<svg width="17" height="17" version="1.1" viewBox="0 0 17 17" xmlns="http://www.w3.org/2000/svg">
 <path d="m8.5 1c-4.1362 0-7.5 3.3638-7.5 7.5s3.3638 7.5 7.5 7.5 7.5-3.3638 7.5-7.5-3.3638-7.5-7.5-7.5zm0 1c3.5958 0 6.5 2.9042 6.5 6.5s-2.9042 6.5-6.5 6.5-6.5-2.9042-6.5-6.5 2.9042-6.5 6.5-6.5zm0.011719 2c-0.14705-7.229e-4 -0.29637 0.010847-0.44531 0.037109-1.1915 0.2101-2.0664 1.253-2.0664 2.4629a0.5 0.5 0 0 0 0.5 0.5 0.5 0.5 0 0 0 0.5-0.5c0-0.73126 0.52008-1.3496 1.2402-1.4766 0.72015-0.12698 1.4198 0.27573 1.6699 0.96289 0.25011 0.68716-0.026866 1.4469-0.66016 1.8125a0.5 0.5 0 0 0-0.054688 0.037109c-0.73913 0.45339-1.1953 1.2587-1.1953 2.1289a0.5 0.5 0 0 0 0.5 0.5 0.5 0.5 0 0 0 0.5-0.5c0-0.5367 0.2852-1.0305 0.75-1.2988a0.5 0.5 0 0 0 0.0019531-0.0019531c0.018914-0.01094 0.036156-0.023781 0.054688-0.035156 1.007-0.61806 1.4491-1.8686 1.043-2.9844-0.36209-0.99483-1.3086-1.6395-2.3379-1.6445zm-0.011719 8a0.5 0.5 0 0 0-0.5 0.5 0.5 0.5 0 0 0 0.5 0.5 0.5 0.5 0 0 0 0.5-0.5 0.5 0.5 0 0 0-0.5-0.5z"/>
</svg>
