<svg width="17" height="17" version="1.1" viewBox="0 0 17 17" xmlns="http://www.w3.org/2000/svg">
 <path d="m2.5 2c-0.27613 2.76e-5 -0.49997 0.22387-0.5 0.5v12c2.76e-5 0.27613 0.22387 0.49997 0.5 0.5h12c0.27613-2.8e-5 0.49997-0.22387 0.5-0.5v-12c-2.8e-5 -0.27613-0.22387-0.49997-0.5-0.5h-12zm0.5 1h11v11h-11v-11zm5.5 3a0.5 0.5 0 0 0-0.5 0.5v0.58594c-0.42335 0.15176-0.7623 0.49071-0.91406 0.91406h-0.58594a0.5 0.5 0 0 0-0.5 0.5 0.5 0.5 0 0 0 0.5 0.5h0.58594c0.15176 0.42335 0.49071 0.7623 0.91406 0.91406v0.58594a0.5 0.5 0 0 0 0.5 0.5 0.5 0.5 0 0 0 0.5-0.5v-0.58594c0.42335-0.15176 0.7623-0.49071 0.91406-0.91406h0.58594a0.5 0.5 0 0 0 0.5-0.5 0.5 0.5 0 0 0-0.5-0.5h-0.58594c-0.15176-0.42335-0.49071-0.7623-0.91406-0.91406v-0.58594a0.5 0.5 0 0 0-0.5-0.5zm0 2c0.28206 0 0.5 0.21794 0.5 0.5 0 0.28206-0.21794 0.5-0.5 0.5-0.28206 0-0.5-0.21794-0.5-0.5 0-0.28206 0.21794-0.5 0.5-0.5z"/>
</svg>
