<svg width="17" height="17" version="1.1" viewBox="0 0 17 17" xmlns="http://www.w3.org/2000/svg">
 <path d="m2.5 2c-0.27613 2.76e-5 -0.49997 0.22387-0.5 0.5v12c2.76e-5 0.27613 0.22387 0.49997 0.5 0.5h12c0.27613-2.8e-5 0.49997-0.22387 0.5-0.5v-12c-2.8e-5 -0.27613-0.22387-0.49997-0.5-0.5h-12zm0.5 1h11v11h-11v-11zm5.5 5a0.5 0.5 0 0 0-0.5 0.5v3c0 0.22872-0.15017 0.42322-0.37109 0.48242-0.22093 0.0592-0.44814-0.03435-0.5625-0.23242a0.5 0.5 0 0 0-0.68164-0.18359 0.5 0.5 0 0 0-0.18359 0.68359c0.33825 0.58586 1.0341 0.87431 1.6875 0.69922 0.63237-0.16944 1.0791-0.73536 1.1074-1.3848a0.5 0.5 0 0 0 0.0039062-0.064453v-3a0.5 0.5 0 0 0-0.5-0.5zm2.9238 0.013672c-0.1672 0.0012675-0.33463 0.03192-0.49805 0.099609-0.3094 0.12816-0.58295 0.33517-0.75391 0.62891s-0.21514 0.6666-0.12109 1.0176c0.1079 0.40269 0.38117 0.70026 0.65625 0.87695 0.27508 0.17669 0.55088 0.2655 0.77734 0.35156 0.22646 0.08607 0.39617 0.16989 0.47461 0.24024 0.07844 0.07035 0.11133 0.10063 0.11133 0.29883 0 0.22155-0.10279 0.36326-0.33984 0.44141-0.23706 0.07815-0.64094 0.05827-1.1543-0.30078a0.5 0.5 0 0 0-0.69727 0.12305 0.5 0.5 0 0 0 0.12305 0.69726c0.35367 0.24736 0.71538 0.4042 1.0625 0.47461 0.34713 0.07041 0.67946 0.053668 0.97852-0.044922 0.59812-0.19718 1.0273-0.75626 1.0273-1.3906 0-0.42929-0.1863-0.81244-0.44336-1.043s-0.54161-0.33638-0.78711-0.42969c-0.2455-0.093304-0.45747-0.17349-0.5918-0.25977-0.13432-0.086277-0.19055-0.14595-0.23047-0.29492-0.03584-0.13375-0.019652-0.1919 0.017578-0.25586 0.03723-0.063964 0.1192-0.14315 0.27344-0.20703 0.03158-0.013082 0.18968-0.030043 0.33008 0.011719 0.1404 0.041761 0.24998 0.12332 0.29492 0.20117a0.5 0.5 0 0 0 0.68164 0.18359 0.5 0.5 0 0 0 0.18359-0.68359c-0.20597-0.35675-0.54337-0.56151-0.875-0.66016-0.16581-0.049322-0.3328-0.077439-0.5-0.076172z"/>
</svg>
