<svg width="17" height="17" version="1.1" viewBox="0 0 17 17" xmlns="http://www.w3.org/2000/svg">
 <path d="m2.5 2c-0.27613 2.76e-5 -0.49997 0.22387-0.5 0.5v6c1e-7 2.3214 1.2396 4.4682 3.25 5.6289s4.4896 1.1607 6.5 0 3.25-3.3075 3.25-5.6289v-6c-2.8e-5 -0.27613-0.22387-0.49997-0.5-0.5h-3c-0.27613 2.76e-5 -0.49997 0.22387-0.5 0.5v6c0 0.89396-0.4758 1.719-1.25 2.166-0.7742 0.44698-1.7258 0.44698-2.5 0s-1.25-1.2721-1.25-2.166v-6c-2.76e-5 -0.27613-0.22387-0.49997-0.5-0.5h-3zm0.5 1h2v2h-2v-2zm9 0h2v2h-2v-2zm-9 3h2v2.5c1e-7 1.2496 0.66779 2.4064 1.75 3.0312 1.0822 0.62481 2.4178 0.62481 3.5 0s1.75-1.7816 1.75-3.0312v-2.5h2v2.5c0 1.9658-1.0476 3.7808-2.75 4.7637-1.7024 0.98288-3.7976 0.98288-5.5 0s-2.75-2.7979-2.75-4.7637v-2.5z"/>
</svg>
