<svg width="17" height="17" version="1.1" viewBox="0 0 17 17" xmlns="http://www.w3.org/2000/svg">
 <path d="m9.5 9c-0.27613 2.8e-5 -0.49997 0.22387-0.5 0.5v5c2.8e-5 0.27613 0.22387 0.49997 0.5 0.5h5c0.27613-2.8e-5 0.49997-0.22387 0.5-0.5v-5c-2.8e-5 -0.27613-0.22387-0.49997-0.5-0.5zm0.5 1h4v4h-4zm-0.5-8c-0.27613 2.76e-5 -0.49997 0.22387-0.5 0.5v5c2.76e-5 0.27613 0.22387 0.49997 0.5 0.5h5c0.27613-2.8e-5 0.49997-0.22387 0.5-0.5v-5c-2.8e-5 -0.27613-0.22387-0.49997-0.5-0.5zm0.5 1h4v4h-4zm-7.5-1c-0.27613 2.76e-5 -0.49997 0.22387-0.5 0.5v12c2.76e-5 0.27613 0.22387 0.49997 0.5 0.5h5c0.27613-2.8e-5 0.49997-0.22387 0.5-0.5v-12c-2.8e-5 -0.27613-0.22387-0.49997-0.5-0.5zm0.5 1h4v11h-4z"/>
</svg>
