<svg width="17" height="17" version="1.1" viewBox="0 0 17 17" xml:space="preserve" xmlns="http://www.w3.org/2000/svg"><path d="m8.502 1c-1.4993-3.542e-4 -2.9998 0.44782-4.2871 1.3438a0.5 0.5 0 0 0-0.0039063 0.0039062 0.5 0.5 0 0 0-0.085938 0.078125 0.5 0.5 0 0 0-0.0078125 0.0097657 0.5 0.5 0 0 0-0.11719 0.31836v1.2461h-1.2441a0.5 0.5 0 0 0-0.1543 0.025391 0.5 0.5 0 0 0-0.0019531 0 0.5 0.5 0 0 0-0.21289 0.13867 0.5 0.5 0 0 0-0.0019532 0.0019531 0.5 0.5 0 0 0-0.0039062 0.0058594 0.5 0.5 0 0 0-0.03125 0.037109 0.5 0.5 0 0 0-0.0058594 0.0078125c-0.0025189 0.0036198-0.0033475 0.0080955-0.0058594 0.011719a0.5 0.5 0 0 0-0.027344 0.044922c-0.87027 1.2744-1.3105 2.7492-1.3105 4.2266-2.91e-5 1.4985 0.44842 2.9965 1.3438 4.2832a0.5 0.5 0 0 0 0.35547 0.21094 0.5 0.5 0 0 0 0.078125 0.005859h1.2227a0.5 0.5 0 0 0 0.0019531 0v1.1875a0.5 0.5 0 0 0 0.0039063 0.064453 0.5 0.5 0 0 0 0.21289 0.40625c1.2857 0.89357 2.7844 1.3416 4.2812 1.3418s2.9934-0.44655 4.2793-1.3398a0.5 0.5 0 0 0 0.20508-0.31641 0.5 0.5 0 0 0 0.001953-0.005859 0.5 0.5 0 0 0 0-0.001953 0.5 0.5 0 0 0 0.013672-0.10938v-1.2266h1.2129a0.5 0.5 0 0 0 0.017578-0.001953 0.5 0.5 0 0 0 0.42578-0.21289c0.83014-1.1926 1.2769-2.5728 1.3359-3.9687 0.059018-1.396-0.26958-2.808-0.99609-4.0664a0.5 0.5 0 0 0-0.039063-0.056641 0.5 0.5 0 0 0-0.007812-0.0078125 0.5 0.5 0 0 0-0.033203-0.039062 0.5 0.5 0 0 0-0.052735-0.044922 0.5 0.5 0 0 0-0.003906-0.0039063 0.5 0.5 0 0 0-0.058594-0.037109 0.5 0.5 0 0 0-0.0625-0.029297 0.5 0.5 0 0 0-0.11133-0.027344 0.5 0.5 0 0 0-0.021484-0.0019531 0.5 0.5 0 0 0-0.042969-0.0019531h-1.5625v-1.707a0.5 0.5 0 0 0-0.21289-0.44727c-0.006307-0.0043943-0.013213-0.0073459-0.019531-0.011719a0.5 0.5 0 0 0-0.037109-0.021484c-1.2746-0.87139-2.7504-1.3122-4.2285-1.3125zm-0.0019531 0.99805c1.2165 1.18e-4 2.433 0.3429 3.5 1.0254v4.4766c0 0.1328-0.05258 0.25961-0.14648 0.35352-0.093904 0.093904-0.22072 0.14648-0.35352 0.14648h-6a0.5 0.5 0 0 0-0.064453 0.0039062c-0.76698 0.033183-1.3932 0.65275-1.4336 1.418a0.5 0.5 0 0 0-0.0019531 0.044922v0.027344c-7.5e-6 0.0019393 0 0.0039185 0 0.0058594a0.5 0.5 0 0 0 0 0.0039062l0.0019531 2.4961a0.5 0.5 0 0 0-0.0019531 0h-0.97852c-1.3643-2.1339-1.3644-4.8661 0-7h5.4785a0.5 0.5 0 0 0 0.5-0.5 0.5 0.5 0 0 0-0.5-0.5h-3.5v-0.97852c1.0671-0.68241 2.2835-1.0236 3.5-1.0234zm-2 0.75781a0.5 0.5 0 0 0-0.5 0.5 0.5 0.5 0 0 0 0.5 0.5 0.5 0.5 0 0 0 0.5-0.5 0.5 0.5 0 0 0-0.5-0.5zm6.5 2.7441h1.2656c1.0735 2.0619 0.96598 4.5404-0.28711 6.5h-7.5742a0.5 0.5 0 0 0-0.5 0.5 0.5 0.5 0 0 0 0.5 0.5h5.5957v0.97656c-2.1336 1.364-4.8644 1.3655-6.998 0.001954l-0.0019531-4.4824c0.0018732-0.28029 0.21915-0.49609 0.5-0.49609h6c0.39763 1e-7 0.77938-0.15828 1.0605-0.43945 0.2659-0.2659 0.41939-0.62192 0.43555-0.99609a0.5 0.5 0 0 0 0.003906-0.064453v-2zm-2.5 7.748a0.5 0.5 0 0 0-0.5 0.5 0.5 0.5 0 0 0 0.5 0.5 0.5 0.5 0 0 0 0.5-0.5 0.5 0.5 0 0 0-0.5-0.5z"/></svg>
