<svg width="17" height="17" version="1.1" viewBox="0 0 17 17" xmlns="http://www.w3.org/2000/svg">
 <path d="m7.751 1c-1.2167 0-2.432 0.46327-3.3574 1.3887-1.8508 1.8508-1.8508 4.866 0 6.7168l6.7578 6.748a0.5 0.5 0 0 0 0.70703 0 0.5 0.5 0 0 0 0-0.70703l-6.7578-6.748c-1.4687-1.4687-1.4687-3.8341 0-5.3027 1.4687-1.4687 3.8341-1.4687 5.3027 0a0.5 0.5 0 0 0 0.02539 0.023437l0.875 0.88086h-0.79883a0.5 0.5 0 0 0-0.5 0.5 0.5 0.5 0 0 0 0.5 0.5h1.9902a0.5 0.5 0 0 0 0.06641-0.00391 0.50005 0.50005 0 0 0 2e-3 0 0.5 0.5 0 0 0 0.29297-0.14062 0.5 0.5 0 0 0 0.13867-0.44727 0.5 0.5 0 0 0 0-0.00391l0.0098-1.9023a0.5 0.5 0 0 0-0.49813-0.50195 0.5 0.5 0 0 0-0.50195 0.49805l-0.0039 0.78516-0.88867-0.89453a0.5 0.5 0 0 0-2e-3 0c-0.92536-0.9254-2.1427-1.3887-3.3593-1.3887z"/>
</svg>
