<svg width="17" height="17" version="1.1" viewBox="0 0 17 17" xmlns="http://www.w3.org/2000/svg">
 <path d="m1.5 1c-0.27613 2.76e-5 -0.49997 0.22387-0.5 0.5v2c2.76e-5 0.27613 0.22387 0.49997 0.5 0.5h0.5v10.5c2.76e-5 0.27613 0.22387 0.49997 0.5 0.5h12c0.27613-2.8e-5 0.49997-0.22387 0.5-0.5v-12c-2.8e-5 -0.27613-0.22387-0.49997-0.5-0.5h-10.5v-0.5c-2.76e-5 -0.27613-0.22387-0.49997-0.5-0.5zm0.5 1h1v1h-1zm2 1h10v11h-11v-10h0.5c0.27613-2.76e-5 0.49997-0.22387 0.5-0.5zm2.5 3c-0.27613 2.76e-5 -0.49997 0.22387-0.5 0.5v5.0273c2.76e-5 0.27613 0.22387 0.49997 0.5 0.5h4.998c0.27613-2.8e-5 0.49997-0.22387 0.5-0.5v-5.0273c-2.8e-5 -0.27613-0.22387-0.49997-0.5-0.5zm0.5 1h3.998v4.0273h-3.998z"/>
</svg>
