<svg width="17" height="17" version="1.1" viewBox="0 0 17 17" xmlns="http://www.w3.org/2000/svg">
 <path d="m2.5 2c-0.27613 2.76e-5 -0.49997 0.22387-0.5 0.5v12c2.76e-5 0.27613 0.22387 0.49997 0.5 0.5h12c0.27613-2.8e-5 0.49997-0.22387 0.5-0.5v-12c-2.8e-5 -0.27613-0.22387-0.49997-0.5-0.5zm0.5 1h11v11h-11zm2.5 2c-0.27613 2.76e-5 -0.49997 0.22387-0.5 0.5v2c0 0.27614 0.22386 0.5 0.5 0.5s0.5-0.22386 0.5-0.5v-1.5h1.5c0.27614 0 0.5-0.22386 0.5-0.5s-0.22386-0.5-0.5-0.5zm3 3c-0.27613 2.76e-5 -0.49997 0.22387-0.5 0.5v3.0273c2.76e-5 0.27613 0.22387 0.49997 0.5 0.5h2.998c0.27613-2.8e-5 0.49997-0.22387 0.5-0.5v-3.0273c-2.8e-5 -0.27613-0.22387-0.49997-0.5-0.5zm0.5 1h1.998v2.0273h-1.998z"/>
</svg>
