<svg width="17" height="17" version="1.1" viewBox="0 0 17 17" xmlns="http://www.w3.org/2000/svg">
 <path d="m1.5 1c-0.27613 2.76e-5 -0.49997 0.22387-0.5 0.5v8c2.76e-5 0.27613 0.22387 0.49997 0.5 0.5h2.5c0.27614 0 0.5-0.22386 0.5-0.5s-0.22386-0.5-0.5-0.5h-2v-7h7v2c0 0.27614 0.22386 0.5 0.5 0.5s0.5-0.22386 0.5-0.5v-2.5c-2.76e-5 -0.27613-0.22387-0.49997-0.5-0.5zm9.5 5c-2.7555 0-5 2.2445-5 5 0 2.7555 2.2445 5 5 5 2.7555 0 5-2.2445 5-5 0-2.7555-2.2445-5-5-5zm0 1c2.2151 0 4 1.7849 4 4 0 2.2151-1.7849 4-4 4-2.2151 0-4-1.7849-4-4 0-2.2151 1.7849-4 4-4z"/>
</svg>
