<svg width="17" height="17" version="1.1" viewBox="0 0 17 17" xmlns="http://www.w3.org/2000/svg">
 <path d="m5.5 4c-0.82543 0-1.4624 0.58584-1.9785 1.2988-0.51609 0.71299-0.94477 1.6163-1.3008 2.5117-0.71202 1.7908-1.127 3.5645-1.127 3.5645a0.5 0.5 0 0 0 0.37305 0.59961 0.5 0.5 0 0 0 0.60156-0.37109s0.40471-1.7203 1.082-3.4238c0.33866-0.85176 0.74728-1.6975 1.1797-2.2949s0.85536-0.88477 1.1699-0.88477c0.056564 0 0.23528 0.072992 0.48242 0.35547 0.24715 0.28248 0.53374 0.72739 0.83398 1.2578 0.60048 1.0608 1.2673 2.4614 2.0527 3.7148 0.78548 1.2534 1.6822 2.3914 2.8867 2.8633 0.60228 0.23592 1.2852 0.2808 1.9785 0.06445 0.69335-0.21634 1.3922-0.67542 2.1191-1.4023a0.5 0.5 0 0 0 0-0.70703 0.5 0.5 0 0 0-0.70703 0c-0.64807 0.64807-1.2212 1.0015-1.7109 1.1543s-0.89954 0.12346-1.3145-0.03906c-0.82982-0.32504-1.6623-1.2808-2.4043-2.4648-0.74202-1.1841-1.4024-2.5648-2.0312-3.6758-0.31445-0.55551-0.61902-1.0442-0.95117-1.4238s-0.72094-0.69727-1.2344-0.69727z" stop-color="#000000" stroke-linecap="round" stroke-linejoin="round" style="paint-order:stroke markers fill"/>
</svg>
